# xmcd CD database file
#
# Track frame offsets:
#	150
#	19062
#	37735
#	50922
#	62839
#	78270
#	94142
#	109482
#	123045
#	136710
#	158437
#	171222
#	190117
#	202630
#	217380
#	229625
#	242857
#	255705
#
# Disc length: 3659 seconds
#
# Revision: 0
# Processed by: cddbd v1.5.1PL0 Copyright (c) Steve Scherf et al.
# Submitted via: CDex 1.51
#
DISCID=ed0e4912
DTITLE=Das grosse Country-Archiv - Deutsche Country- und Truckersongs CD 2
DYEAR=1900
DGENRE=Country
TTITLE0=Intrecity Linie Nummer 4 - GUNTER GEBRIEL
TTITLE1=Gelbe Rosen - DAGMAR
TTITLE2=Die Frau mit dem Gurt - TRUCK STOP
TTITLE3=Freunde - TOM ASTOR
TTITLE4=Auf der Autobahn - WESTERN UNION
TTITLE5=Spiel mir noch einmal das Lied - LINDA FELLER
TTITLE6=Eine Herde weisser Pferde - TRUCKS
TTITLE7=Das geht ganz tief rein - IRIS MC COLLINS
TTITLE8=Portland daheim - JOE HOTGKINS BOSS BAND
TTITLE9=Ruf Teddybär eins vier - JONNY HILL
TTITLE10=Typen mit dem Cowboyhut - GREYHOUNDS
TTITLE11=Ich bin kein Dichter, kein Poet - TOM ASTOR
TTITLE12=Der wilde wilde Westen - TRUCK STOP
TTITLE13=Wenn du wieder da bist - HANNA and DAANA
TTITLE14=Wenn ich nur fliegen könnte - JONNY HILL
TTITLE15=Ich weiss genau was ich will - LINDA FELLER
TTITLE16=Dagegen hilft nur Country-Music - COUNTRY ROADS
TTITLE17=Wir sind alle gleich - DAGMAR
EXTD=
EXTT0=
EXTT1=
EXTT2=
EXTT3=
EXTT4=
EXTT5=
EXTT6=
EXTT7=
EXTT8=
EXTT9=
EXTT10=
EXTT11=
EXTT12=
EXTT13=
EXTT14=
EXTT15=
EXTT16=
EXTT17=
PLAYORDER=
